{
    "accessors" : [
        {
            "bufferView" : 0,
            "componentType" : 5123,
            "count" : 9732,
            "max" : [
                1801
            ],
            "min" : [
                0
            ],
            "type" : "SCALAR"
        },
        {
            "bufferView" : 1,
            "componentType" : 5126,
            "count" : 1802,
            "max" : [
                1.0,
                0.4697376489639282,
                0.2531576454639435
            ],
            "min" : [
                -1.0,
                -0.4379103183746338,
                -0.5161796808242798
            ],
            "type" : "VEC3"
        },
        {
            "bufferView" : 2,
            "componentType" : 5126,
            "count" : 1802,
            "max" : [
                0.9999999403953552,
                0.999267578125,
                0.999725341796875
            ],
            "min" : [
                -1.0,
                -0.9998779296875,
                -0.999786376953125
            ],
            "type" : "VEC3"
        },
        {
            "bufferView" : 3,
            "componentType" : 5126,
            "count" : 1802,
            "max" : [
                0.29982060194015503,
                1.0
            ],
            "min" : [
                0.0,
                0.0013786554336547852
            ],
            "type" : "VEC2"
        }
    ],
    "asset" : {
        "generator" : "Khronos Blender glTF 2.0 exporter",
        "version" : "2.0"
    },
    "bufferViews" : [
        {
            "buffer" : 0,
            "byteLength" : 19464,
            "byteOffset" : 0,
            "target" : 34963
        },
        {
            "buffer" : 0,
            "byteLength" : 21624,
            "byteOffset" : 19464,
            "target" : 34962
        },
        {
            "buffer" : 0,
            "byteLength" : 21624,
            "byteOffset" : 41088,
            "target" : 34962
        },
        {
            "buffer" : 0,
            "byteLength" : 14416,
            "byteOffset" : 62712,
            "target" : 34962
        }
    ],
    "buffers" : [
        {
            "byteLength" : 77128,
            "uri" : "k_apaksDelms.bin"
        }
    ],
    "meshes" : [
        {
            "name" : "Cube.019",
            "primitives" : [
                {
                    "attributes" : {
                        "NORMAL" : 2,
                        "POSITION" : 1,
                        "TEXCOORD_0" : 3
                    },
                    "indices" : 0
                }
            ]
        }
    ],
    "nodes" : [
        {
            "name" : "Camera",
            "rotation" : [
                0.483536034822464,
                0.33687159419059753,
                -0.20870360732078552,
                0.7804827094078064
            ],
            "translation" : [
                7.481131553649902,
                5.34366512298584,
                6.5076398849487305
            ]
        },
        {
            "mesh" : 0,
            "name" : "Cube.016",
            "scale" : [
                1.0940674543380737,
                1.0,
                1.0
            ],
            "translation" : [
                6.216619491577148,
                -2.2790186405181885,
                -0.24895262718200684
            ]
        },
        {
            "name" : "Lamp",
            "rotation" : [
                0.16907575726509094,
                0.7558802962303162,
                -0.27217137813568115,
                0.570947527885437
            ],
            "scale" : [
                1.0,
                1.0,
                0.9999999403953552
            ],
            "translation" : [
                4.076245307922363,
                5.903861999511719,
                -1.0054539442062378
            ]
        }
    ],
    "scene" : 0,
    "scenes" : [
        {
            "name" : "Scene",
            "nodes" : [
                1,
                2,
                0
            ]
        }
    ]
}
