{
    "accessors" : [
        {
            "bufferView" : 0,
            "componentType" : 5123,
            "count" : 12174,
            "max" : [
                2246
            ],
            "min" : [
                0
            ],
            "type" : "SCALAR"
        },
        {
            "bufferView" : 1,
            "componentType" : 5126,
            "count" : 2247,
            "max" : [
                1.0,
                0.8406628370285034,
                0.47536230087280273
            ],
            "min" : [
                -1.0,
                -0.5638924837112427,
                -0.547920823097229
            ],
            "type" : "VEC3"
        },
        {
            "bufferView" : 2,
            "componentType" : 5126,
            "count" : 2247,
            "max" : [
                1.0,
                0.99993896484375,
                0.9998779296875
            ],
            "min" : [
                -1.0,
                -0.999481201171875,
                -0.999603271484375
            ],
            "type" : "VEC3"
        },
        {
            "bufferView" : 3,
            "componentType" : 5126,
            "count" : 2247,
            "max" : [
                0.20661476254463196,
                1.0
            ],
            "min" : [
                0.0,
                0.0010586380958557129
            ],
            "type" : "VEC2"
        }
    ],
    "asset" : {
        "generator" : "Khronos Blender glTF 2.0 exporter",
        "version" : "2.0"
    },
    "bufferViews" : [
        {
            "buffer" : 0,
            "byteLength" : 24348,
            "byteOffset" : 0,
            "target" : 34963
        },
        {
            "buffer" : 0,
            "byteLength" : 26964,
            "byteOffset" : 24348,
            "target" : 34962
        },
        {
            "buffer" : 0,
            "byteLength" : 26964,
            "byteOffset" : 51312,
            "target" : 34962
        },
        {
            "buffer" : 0,
            "byteLength" : 17976,
            "byteOffset" : 78276,
            "target" : 34962
        }
    ],
    "buffers" : [
        {
            "byteLength" : 96252,
            "uri" : "k_augsDelms.bin"
        }
    ],
    "meshes" : [
        {
            "name" : "Cube.018",
            "primitives" : [
                {
                    "attributes" : {
                        "NORMAL" : 2,
                        "POSITION" : 1,
                        "TEXCOORD_0" : 3
                    },
                    "indices" : 0
                }
            ]
        }
    ],
    "nodes" : [
        {
            "name" : "Camera",
            "rotation" : [
                0.483536034822464,
                0.33687159419059753,
                -0.20870360732078552,
                0.7804827094078064
            ],
            "translation" : [
                7.481131553649902,
                5.34366512298584,
                6.5076398849487305
            ]
        },
        {
            "mesh" : 0,
            "name" : "Cube.015",
            "scale" : [
                1.1386282444000244,
                1.0,
                1.560983419418335
            ],
            "translation" : [
                3.1637628078460693,
                -2.382610321044922,
                -0.2328910082578659
            ]
        },
        {
            "name" : "Lamp",
            "rotation" : [
                0.16907575726509094,
                0.7558802962303162,
                -0.27217137813568115,
                0.570947527885437
            ],
            "scale" : [
                1.0,
                1.0,
                0.9999999403953552
            ],
            "translation" : [
                4.076245307922363,
                5.903861999511719,
                -1.0054539442062378
            ]
        }
    ],
    "scene" : 0,
    "scenes" : [
        {
            "name" : "Scene",
            "nodes" : [
                1,
                2,
                0
            ]
        }
    ]
}
