{
    "accessors" : [
        {
            "bufferView" : 0,
            "componentType" : 5123,
            "count" : 74442,
            "max" : [
                13085
            ],
            "min" : [
                0
            ],
            "type" : "SCALAR"
        },
        {
            "bufferView" : 1,
            "componentType" : 5126,
            "count" : 13086,
            "max" : [
                0.7872977256774902,
                0.1847531795501709,
                0.43245190382003784
            ],
            "min" : [
                -1.0,
                -0.551837682723999,
                -0.8388261198997498
            ],
            "type" : "VEC3"
        },
        {
            "bufferView" : 2,
            "componentType" : 5126,
            "count" : 13086,
            "max" : [
                0.99981689453125,
                0.999908447265625,
                0.99993896484375
            ],
            "min" : [
                -1.0,
                -0.999969482421875,
                -0.999908447265625
            ],
            "type" : "VEC3"
        },
        {
            "bufferView" : 3,
            "componentType" : 5126,
            "count" : 13086,
            "max" : [
                0.4182983636856079,
                1.0
            ],
            "min" : [
                0.0,
                0.009924709796905518
            ],
            "type" : "VEC2"
        }
    ],
    "asset" : {
        "generator" : "Khronos Blender glTF 2.0 exporter",
        "version" : "2.0"
    },
    "bufferViews" : [
        {
            "buffer" : 0,
            "byteLength" : 148884,
            "byteOffset" : 0,
            "target" : 34963
        },
        {
            "buffer" : 0,
            "byteLength" : 157032,
            "byteOffset" : 148884,
            "target" : 34962
        },
        {
            "buffer" : 0,
            "byteLength" : 157032,
            "byteOffset" : 305916,
            "target" : 34962
        },
        {
            "buffer" : 0,
            "byteLength" : 104688,
            "byteOffset" : 462948,
            "target" : 34962
        }
    ],
    "buffers" : [
        {
            "byteLength" : 567636,
            "uri" : "k_plauksta.bin"
        }
    ],
    "meshes" : [
        {
            "name" : "Cube.020",
            "primitives" : [
                {
                    "attributes" : {
                        "NORMAL" : 2,
                        "POSITION" : 1,
                        "TEXCOORD_0" : 3
                    },
                    "indices" : 0
                }
            ]
        }
    ],
    "nodes" : [
        {
            "name" : "Camera",
            "rotation" : [
                0.483536034822464,
                0.33687159419059753,
                -0.20870360732078552,
                0.7804827094078064
            ],
            "translation" : [
                7.481131553649902,
                5.34366512298584,
                6.5076398849487305
            ]
        },
        {
            "mesh" : 0,
            "name" : "Cube.017",
            "translation" : [
                8.900413513183594,
                -2.1759135723114014,
                -0.0
            ]
        },
        {
            "name" : "Lamp",
            "rotation" : [
                0.16907575726509094,
                0.7558802962303162,
                -0.27217137813568115,
                0.570947527885437
            ],
            "scale" : [
                1.0,
                1.0,
                0.9999999403953552
            ],
            "translation" : [
                4.076245307922363,
                5.903861999511719,
                -1.0054539442062378
            ]
        }
    ],
    "scene" : 0,
    "scenes" : [
        {
            "name" : "Scene",
            "nodes" : [
                1,
                2,
                0
            ]
        }
    ]
}
