{
    "accessors" : [
        {
            "bufferView" : 0,
            "componentType" : 5123,
            "count" : 20178,
            "max" : [
                3862
            ],
            "min" : [
                0
            ],
            "type" : "SCALAR"
        },
        {
            "bufferView" : 1,
            "componentType" : 5126,
            "count" : 3863,
            "max" : [
                1.0,
                1.0,
                0.7758041620254517
            ],
            "min" : [
                -1.0,
                -1.0,
                -0.7580146193504333
            ],
            "type" : "VEC3"
        },
        {
            "bufferView" : 2,
            "componentType" : 5126,
            "count" : 3863,
            "max" : [
                1.0,
                1.0,
                0.999908447265625
            ],
            "min" : [
                -0.9999999403953552,
                -1.0,
                -0.999969482421875
            ],
            "type" : "VEC3"
        },
        {
            "bufferView" : 3,
            "componentType" : 5126,
            "count" : 3863,
            "max" : [
                0.8909755945205688,
                1.0
            ],
            "min" : [
                0.0,
                0.03209608793258667
            ],
            "type" : "VEC2"
        }
    ],
    "asset" : {
        "generator" : "Khronos Blender glTF 2.0 exporter",
        "version" : "2.0"
    },
    "bufferViews" : [
        {
            "buffer" : 0,
            "byteLength" : 40356,
            "byteOffset" : 0,
            "target" : 34963
        },
        {
            "buffer" : 0,
            "byteLength" : 46356,
            "byteOffset" : 40356,
            "target" : 34962
        },
        {
            "buffer" : 0,
            "byteLength" : 46356,
            "byteOffset" : 86712,
            "target" : 34962
        },
        {
            "buffer" : 0,
            "byteLength" : 30904,
            "byteOffset" : 133068,
            "target" : 34962
        }
    ],
    "buffers" : [
        {
            "byteLength" : 163972,
            "uri" : "krutis.bin"
        }
    ],
    "meshes" : [
        {
            "name" : "Cube.004",
            "primitives" : [
                {
                    "attributes" : {
                        "NORMAL" : 2,
                        "POSITION" : 1,
                        "TEXCOORD_0" : 3
                    },
                    "indices" : 0
                }
            ]
        }
    ],
    "nodes" : [
        {
            "name" : "Camera",
            "rotation" : [
                0.483536034822464,
                0.33687159419059753,
                -0.20870360732078552,
                0.7804827094078064
            ],
            "translation" : [
                7.481131553649902,
                5.34366512298584,
                6.5076398849487305
            ]
        },
        {
            "mesh" : 0,
            "name" : "Cube.001",
            "scale" : [
                1.6320034265518188,
                1.2319318056106567,
                1.6320034265518188
            ],
            "translation" : [
                1.663085699081421,
                -1.9998875856399536,
                -0.0
            ]
        },
        {
            "name" : "Lamp",
            "rotation" : [
                0.16907575726509094,
                0.7558802962303162,
                -0.27217137813568115,
                0.570947527885437
            ],
            "scale" : [
                1.0,
                1.0,
                0.9999999403953552
            ],
            "translation" : [
                4.076245307922363,
                5.903861999511719,
                -1.0054539442062378
            ]
        }
    ],
    "scene" : 0,
    "scenes" : [
        {
            "name" : "Scene",
            "nodes" : [
                1,
                2,
                0
            ]
        }
    ]
}
