{
    "accessors" : [
        {
            "bufferView" : 0,
            "componentType" : 5123,
            "count" : 4308,
            "max" : [
                835
            ],
            "min" : [
                0
            ],
            "type" : "SCALAR"
        },
        {
            "bufferView" : 1,
            "componentType" : 5126,
            "count" : 836,
            "max" : [
                0.7675598859786987,
                1.0,
                0.44156086444854736
            ],
            "min" : [
                -0.5871716737747192,
                -1.0,
                -0.8571317195892334
            ],
            "type" : "VEC3"
        },
        {
            "bufferView" : 2,
            "componentType" : 5126,
            "count" : 836,
            "max" : [
                0.999176025390625,
                1.0,
                0.999908447265625
            ],
            "min" : [
                -0.99993896484375,
                -1.0,
                -0.999603271484375
            ],
            "type" : "VEC3"
        },
        {
            "bufferView" : 3,
            "componentType" : 5126,
            "count" : 836,
            "max" : [
                0.566869854927063,
                1.0
            ],
            "min" : [
                0.0,
                0.6927347779273987
            ],
            "type" : "VEC2"
        }
    ],
    "asset" : {
        "generator" : "Khronos Blender glTF 2.0 exporter",
        "version" : "2.0"
    },
    "bufferViews" : [
        {
            "buffer" : 0,
            "byteLength" : 8616,
            "byteOffset" : 0,
            "target" : 34963
        },
        {
            "buffer" : 0,
            "byteLength" : 10032,
            "byteOffset" : 8616,
            "target" : 34962
        },
        {
            "buffer" : 0,
            "byteLength" : 10032,
            "byteOffset" : 18648,
            "target" : 34962
        },
        {
            "buffer" : 0,
            "byteLength" : 6688,
            "byteOffset" : 28680,
            "target" : 34962
        }
    ],
    "buffers" : [
        {
            "byteLength" : 35368,
            "uri" : "l_apaksStilbs.bin"
        }
    ],
    "meshes" : [
        {
            "name" : "Cube.009",
            "primitives" : [
                {
                    "attributes" : {
                        "NORMAL" : 2,
                        "POSITION" : 1,
                        "TEXCOORD_0" : 3
                    },
                    "indices" : 0
                }
            ]
        }
    ],
    "nodes" : [
        {
            "name" : "Camera",
            "rotation" : [
                0.483536034822464,
                0.33687159419059753,
                -0.20870360732078552,
                0.7804827094078064
            ],
            "translation" : [
                7.481131553649902,
                5.34366512298584,
                6.5076398849487305
            ]
        },
        {
            "mesh" : 0,
            "name" : "Cube.006",
            "scale" : [
                0.8569807410240173,
                1.0,
                1.0
            ],
            "translation" : [
                -0.9999680519104004,
                -13.495363235473633,
                -0.0
            ]
        },
        {
            "name" : "Lamp",
            "rotation" : [
                0.16907575726509094,
                0.7558802962303162,
                -0.27217137813568115,
                0.570947527885437
            ],
            "scale" : [
                1.0,
                1.0,
                0.9999999403953552
            ],
            "translation" : [
                4.076245307922363,
                5.903861999511719,
                -1.0054539442062378
            ]
        }
    ],
    "scene" : 0,
    "scenes" : [
        {
            "name" : "Scene",
            "nodes" : [
                1,
                2,
                0
            ]
        }
    ]
}
