{
    "accessors" : [
        {
            "bufferView" : 0,
            "componentType" : 5123,
            "count" : 10728,
            "max" : [
                1967
            ],
            "min" : [
                0
            ],
            "type" : "SCALAR"
        },
        {
            "bufferView" : 1,
            "componentType" : 5126,
            "count" : 1968,
            "max" : [
                1.0,
                0.5387985706329346,
                0.01121034100651741
            ],
            "min" : [
                -1.0,
                -0.3688490390777588,
                -0.44024619460105896
            ],
            "type" : "VEC3"
        },
        {
            "bufferView" : 2,
            "componentType" : 5126,
            "count" : 1968,
            "max" : [
                1.0,
                0.99908447265625,
                0.9998779296875
            ],
            "min" : [
                -1.0,
                -0.999847412109375,
                -0.999908447265625
            ],
            "type" : "VEC3"
        },
        {
            "bufferView" : 3,
            "componentType" : 5126,
            "count" : 1968,
            "max" : [
                0.7066910266876221,
                1.0
            ],
            "min" : [
                0.0,
                0.023157715797424316
            ],
            "type" : "VEC2"
        }
    ],
    "asset" : {
        "generator" : "Khronos Blender glTF 2.0 exporter",
        "version" : "2.0"
    },
    "bufferViews" : [
        {
            "buffer" : 0,
            "byteLength" : 21456,
            "byteOffset" : 0,
            "target" : 34963
        },
        {
            "buffer" : 0,
            "byteLength" : 23616,
            "byteOffset" : 21456,
            "target" : 34962
        },
        {
            "buffer" : 0,
            "byteLength" : 23616,
            "byteOffset" : 45072,
            "target" : 34962
        },
        {
            "buffer" : 0,
            "byteLength" : 15744,
            "byteOffset" : 68688,
            "target" : 34962
        }
    ],
    "buffers" : [
        {
            "byteLength" : 84432,
            "uri" : "l_apaksDelms.bin"
        }
    ],
    "meshes" : [
        {
            "name" : "Cube.016",
            "primitives" : [
                {
                    "attributes" : {
                        "NORMAL" : 2,
                        "POSITION" : 1,
                        "TEXCOORD_0" : 3
                    },
                    "indices" : 0
                }
            ]
        }
    ],
    "nodes" : [
        {
            "name" : "Camera",
            "rotation" : [
                0.483536034822464,
                0.33687159419059753,
                -0.20870360732078552,
                0.7804827094078064
            ],
            "translation" : [
                7.481131553649902,
                5.34366512298584,
                6.5076398849487305
            ]
        },
        {
            "mesh" : 0,
            "name" : "Cube.013",
            "scale" : [
                1.1589797735214233,
                1.0,
                1.7379647493362427
            ],
            "translation" : [
                -5.660426139831543,
                -2.3480796813964844,
                -0.0
            ]
        },
        {
            "name" : "Lamp",
            "rotation" : [
                0.16907575726509094,
                0.7558802962303162,
                -0.27217137813568115,
                0.570947527885437
            ],
            "scale" : [
                1.0,
                1.0,
                0.9999999403953552
            ],
            "translation" : [
                4.076245307922363,
                5.903861999511719,
                -1.0054539442062378
            ]
        }
    ],
    "scene" : 0,
    "scenes" : [
        {
            "name" : "Scene",
            "nodes" : [
                1,
                2,
                0
            ]
        }
    ]
}
