{
    "accessors" : [
        {
            "bufferView" : 0,
            "componentType" : 5123,
            "count" : 5160,
            "max" : [
                994
            ],
            "min" : [
                0
            ],
            "type" : "SCALAR"
        },
        {
            "bufferView" : 1,
            "componentType" : 5126,
            "count" : 995,
            "max" : [
                0.9442500472068787,
                1.0,
                0.8224124312400818
            ],
            "min" : [
                -0.6549703478813171,
                -1.0,
                -0.5773655772209167
            ],
            "type" : "VEC3"
        },
        {
            "bufferView" : 2,
            "componentType" : 5126,
            "count" : 995,
            "max" : [
                0.99957275390625,
                1.0,
                0.99969482421875
            ],
            "min" : [
                -0.9987487196922302,
                -0.9999999403953552,
                -0.999969482421875
            ],
            "type" : "VEC3"
        },
        {
            "bufferView" : 3,
            "componentType" : 5126,
            "count" : 995,
            "max" : [
                0.5002537965774536,
                1.0
            ],
            "min" : [
                0.0,
                0.54787877202034
            ],
            "type" : "VEC2"
        }
    ],
    "asset" : {
        "generator" : "Khronos Blender glTF 2.0 exporter",
        "version" : "2.0"
    },
    "bufferViews" : [
        {
            "buffer" : 0,
            "byteLength" : 10320,
            "byteOffset" : 0,
            "target" : 34963
        },
        {
            "buffer" : 0,
            "byteLength" : 11940,
            "byteOffset" : 10320,
            "target" : 34962
        },
        {
            "buffer" : 0,
            "byteLength" : 11940,
            "byteOffset" : 22260,
            "target" : 34962
        },
        {
            "buffer" : 0,
            "byteLength" : 7960,
            "byteOffset" : 34200,
            "target" : 34962
        }
    ],
    "buffers" : [
        {
            "byteLength" : 42160,
            "uri" : "l_ciska.bin"
        }
    ],
    "meshes" : [
        {
            "name" : "Cube.007",
            "primitives" : [
                {
                    "attributes" : {
                        "NORMAL" : 2,
                        "POSITION" : 1,
                        "TEXCOORD_0" : 3
                    },
                    "indices" : 0
                }
            ]
        }
    ],
    "nodes" : [
        {
            "name" : "Camera",
            "rotation" : [
                0.483536034822464,
                0.33687159419059753,
                -0.20870360732078552,
                0.7804827094078064
            ],
            "translation" : [
                7.481131553649902,
                5.34366512298584,
                6.5076398849487305
            ]
        },
        {
            "mesh" : 0,
            "name" : "Cube.004",
            "scale" : [
                1.0,
                1.0,
                1.3738783597946167
            ],
            "translation" : [
                -0.9974176287651062,
                -8.94916820526123,
                -0.0
            ]
        },
        {
            "name" : "Lamp",
            "rotation" : [
                0.16907575726509094,
                0.7558802962303162,
                -0.27217137813568115,
                0.570947527885437
            ],
            "scale" : [
                1.0,
                1.0,
                0.9999999403953552
            ],
            "translation" : [
                4.076245307922363,
                5.903861999511719,
                -1.0054539442062378
            ]
        }
    ],
    "scene" : 0,
    "scenes" : [
        {
            "name" : "Scene",
            "nodes" : [
                1,
                2,
                0
            ]
        }
    ]
}
