{
    "accessors" : [
        {
            "bufferView" : 0,
            "componentType" : 5123,
            "count" : 19992,
            "max" : [
                3633
            ],
            "min" : [
                0
            ],
            "type" : "SCALAR"
        },
        {
            "bufferView" : 1,
            "componentType" : 5126,
            "count" : 3634,
            "max" : [
                0.8761001825332642,
                1.0,
                0.7925793528556824
            ],
            "min" : [
                -0.8761002421379089,
                -1.0,
                -0.6149706840515137
            ],
            "type" : "VEC3"
        },
        {
            "bufferView" : 2,
            "componentType" : 5126,
            "count" : 3634,
            "max" : [
                0.999847412109375,
                1.0,
                0.999969482421875
            ],
            "min" : [
                -0.999847412109375,
                -0.9999999403953552,
                -0.999969482421875
            ],
            "type" : "VEC3"
        },
        {
            "bufferView" : 3,
            "componentType" : 5126,
            "count" : 3634,
            "max" : [
                0.5434503555297852,
                1.0
            ],
            "min" : [
                0.0,
                0.35556864738464355
            ],
            "type" : "VEC2"
        }
    ],
    "asset" : {
        "generator" : "Khronos Blender glTF 2.0 exporter",
        "version" : "2.0"
    },
    "bufferViews" : [
        {
            "buffer" : 0,
            "byteLength" : 39984,
            "byteOffset" : 0,
            "target" : 34963
        },
        {
            "buffer" : 0,
            "byteLength" : 43608,
            "byteOffset" : 39984,
            "target" : 34962
        },
        {
            "buffer" : 0,
            "byteLength" : 43608,
            "byteOffset" : 83592,
            "target" : 34962
        },
        {
            "buffer" : 0,
            "byteLength" : 29072,
            "byteOffset" : 127200,
            "target" : 34962
        }
    ],
    "buffers" : [
        {
            "byteLength" : 156272,
            "uri" : "ribas.bin"
        }
    ],
    "meshes" : [
        {
            "name" : "Cube.005",
            "primitives" : [
                {
                    "attributes" : {
                        "NORMAL" : 2,
                        "POSITION" : 1,
                        "TEXCOORD_0" : 3
                    },
                    "indices" : 0
                }
            ]
        }
    ],
    "nodes" : [
        {
            "name" : "Camera",
            "rotation" : [
                0.483536034822464,
                0.33687159419059753,
                -0.20870360732078552,
                0.7804827094078064
            ],
            "translation" : [
                7.481131553649902,
                5.34366512298584,
                6.5076398849487305
            ]
        },
        {
            "mesh" : 0,
            "name" : "Cube.002",
            "scale" : [
                1.7745640277862549,
                1.0,
                1.6790320873260498
            ],
            "translation" : [
                0.0,
                -4.432153701782227,
                -0.0
            ]
        },
        {
            "name" : "Lamp",
            "rotation" : [
                0.16907575726509094,
                0.7558802962303162,
                -0.27217137813568115,
                0.570947527885437
            ],
            "scale" : [
                1.0,
                1.0,
                0.9999999403953552
            ],
            "translation" : [
                4.076245307922363,
                5.903861999511719,
                -1.0054539442062378
            ]
        }
    ],
    "scene" : 0,
    "scenes" : [
        {
            "name" : "Scene",
            "nodes" : [
                1,
                2,
                0
            ]
        }
    ]
}
